<?xml version="1.0" encoding="utf-8"?>
<!-- Generator: Adobe Illustrator 22.0.1, SVG Export Plug-In . SVG Version: 6.00 Build 0)  -->
<svg version="1.1" id="レイヤー_1" xmlns="http://www.w3.org/2000/svg" xmlns:xlink="http://www.w3.org/1999/xlink" x="0px"
	 y="0px" viewBox="0 0 522 56" style="enable-background:new 0 0 522 56;" xml:space="preserve">
<style type="text/css">
	.st0{fill:#FF0000;}
	.st1{font-family:'YuGo-Medium-83pv-RKSJ-H';}
	.st2{font-size:26px;}
	.st3{fill:#FFFFFF;}
	.st4{font-size:18px;}
</style>
<title>アセット 4</title>
<g id="レイヤー_2_1_">
	<g id="レイヤー_1-2">
		<path class="st0" d="M18,35.5C8.3,35.5,0.5,27.7,0.5,18S8.3,0.5,18,0.5S35.5,8.3,35.5,18C35.5,27.7,27.7,35.5,18,35.5z"/>
		<path class="st0" d="M18,1c9.4,0,17,7.6,17,17s-7.6,17-17,17S1,27.4,1,18S8.6,1,18,1 M18,0C8.1,0,0,8.1,0,18s8.1,18,18,18
			s18-8.1,18-18S27.9,0,18,0z"/>
		<text transform="matrix(1 0 0 1 66 41.12)" class="st1 st2">YUNOKI ACCOUNTING PARTNERS</text>
		<text transform="matrix(1 0 0 1 16 24.84)" class="st3 st1 st4">株</text>
		<text transform="matrix(1 0 0 1 34 24.84)" class="st1 st4">式</text>
		<text transform="matrix(1 0 0 1 16.85 48.84)" class="st1 st4">会社</text>
	</g>
</g>
</svg>
